<svg xmlns="http://www.w3.org/2000/svg" viewBox="0 0 512 512">
  <rect width="512" height="512" rx="80" fill="#e8541a" />
  <path d="M160 160h192v256H160z" fill="#fff" />
  <path d="M160 160c0-32 32-64 96-64s96 32 96 64v256H160V160z" fill="#fff" />
  <g fill="#e8541a">
    <rect x="200" y="160" width="30" height="30" rx="4" />
    <rect x="241" y="160" width="30" height="30" rx="4" />
    <rect x="282" y="160" width="30" height="30" rx="4" />
    <rect x="200" y="210" width="30" height="30" rx="4" />
    <rect x="241" y="210" width="30" height="30" rx="4" />
    <rect x="282" y="210" width="30" height="30" rx="4" />
  </g>
  <path d="M236 416v-40c0-11 9-20 20-20s20 9 20 20v40h-40z" fill="#e8541a" />
</svg>